<svg xmlns="http://www.w3.org/2000/svg" xmlns:xlink="http://www.w3.org/1999/xlink" width="250" zoomAndPan="magnify" viewBox="0 0 187.5 112.499997" height="150" preserveAspectRatio="xMidYMid meet" version="1.0"><defs><g/><clipPath id="43425a1016"><path d="M 0.164062 35.269531 L 29.886719 35.269531 L 29.886719 75.5 L 0.164062 75.5 Z M 0.164062 35.269531 " clip-rule="nonzero"/></clipPath></defs><g clip-path="url(#43425a1016)"><path fill="#f2f6f6" d="M 0.164062 35.269531 L 29.96875 35.269531 L 29.96875 75.679688 L 0.164062 75.679688 Z M 0.164062 35.269531 " fill-opacity="1" fill-rule="nonzero"/></g><g fill="#000000" fill-opacity="1"><g transform="translate(29.8861, 36.66471)"><g><path d="M 11.359375 0.34375 C 9.347656 0.34375 7.59375 -0.09375 6.09375 -0.96875 C 4.59375 -1.851562 3.414062 -3.070312 2.5625 -4.625 C 1.71875 -6.1875 1.296875 -7.988281 1.296875 -10.03125 C 1.296875 -12.082031 1.71875 -13.882812 2.5625 -15.4375 C 3.414062 -17 4.59375 -18.21875 6.09375 -19.09375 C 7.59375 -19.976562 9.347656 -20.421875 11.359375 -20.421875 C 13.347656 -20.421875 15.09375 -19.976562 16.59375 -19.09375 C 18.101562 -18.21875 19.28125 -17 20.125 -15.4375 C 20.96875 -13.882812 21.390625 -12.082031 21.390625 -10.03125 C 21.390625 -7.988281 20.96875 -6.1875 20.125 -4.625 C 19.28125 -3.070312 18.101562 -1.851562 16.59375 -0.96875 C 15.09375 -0.09375 13.347656 0.34375 11.359375 0.34375 Z M 11.359375 -2.953125 C 13.265625 -2.953125 14.785156 -3.582031 15.921875 -4.84375 C 17.066406 -6.101562 17.640625 -7.832031 17.640625 -10.03125 C 17.640625 -12.226562 17.066406 -13.957031 15.921875 -15.21875 C 14.785156 -16.476562 13.265625 -17.109375 11.359375 -17.109375 C 9.441406 -17.109375 7.910156 -16.476562 6.765625 -15.21875 C 5.617188 -13.957031 5.046875 -12.226562 5.046875 -10.03125 C 5.046875 -7.832031 5.617188 -6.101562 6.765625 -4.84375 C 7.910156 -3.582031 9.441406 -2.953125 11.359375 -2.953125 Z M 11.359375 -2.953125 "/></g></g></g><g fill="#000000" fill-opacity="1"><g transform="translate(52.561665, 36.66471)"><g><path d="M 1.859375 0 L 1.859375 -14.21875 L 5.125 -14.21875 L 5.46875 -11.5625 C 5.988281 -12.476562 6.691406 -13.207031 7.578125 -13.75 C 8.472656 -14.289062 9.519531 -14.5625 10.71875 -14.5625 L 10.71875 -10.6875 L 9.6875 -10.6875 C 8.882812 -10.6875 8.164062 -10.5625 7.53125 -10.3125 C 6.90625 -10.070312 6.414062 -9.644531 6.0625 -9.03125 C 5.707031 -8.414062 5.53125 -7.566406 5.53125 -6.484375 L 5.53125 0 Z M 1.859375 0 "/></g></g></g><g fill="#000000" fill-opacity="1"><g transform="translate(63.913779, 36.66471)"><g><path d="M 6.765625 0.34375 C 5.546875 0.34375 4.539062 0.148438 3.75 -0.234375 C 2.96875 -0.628906 2.382812 -1.148438 2 -1.796875 C 1.625 -2.453125 1.4375 -3.171875 1.4375 -3.953125 C 1.4375 -5.273438 1.953125 -6.347656 2.984375 -7.171875 C 4.015625 -7.992188 5.5625 -8.40625 7.625 -8.40625 L 11.234375 -8.40625 L 11.234375 -8.75 C 11.234375 -9.71875 10.957031 -10.429688 10.40625 -10.890625 C 9.851562 -11.347656 9.164062 -11.578125 8.34375 -11.578125 C 7.59375 -11.578125 6.941406 -11.398438 6.390625 -11.046875 C 5.835938 -10.691406 5.492188 -10.171875 5.359375 -9.484375 L 1.78125 -9.484375 C 1.875 -10.515625 2.222656 -11.410156 2.828125 -12.171875 C 3.429688 -12.941406 4.207031 -13.53125 5.15625 -13.9375 C 6.113281 -14.351562 7.1875 -14.5625 8.375 -14.5625 C 10.394531 -14.5625 11.988281 -14.054688 13.15625 -13.046875 C 14.320312 -12.035156 14.90625 -10.601562 14.90625 -8.75 L 14.90625 0 L 11.78125 0 L 11.4375 -2.296875 C 11.019531 -1.523438 10.429688 -0.890625 9.671875 -0.390625 C 8.921875 0.0976562 7.953125 0.34375 6.765625 0.34375 Z M 7.59375 -2.515625 C 8.644531 -2.515625 9.460938 -2.859375 10.046875 -3.546875 C 10.628906 -4.242188 11 -5.097656 11.15625 -6.109375 L 8.03125 -6.109375 C 7.050781 -6.109375 6.347656 -5.929688 5.921875 -5.578125 C 5.503906 -5.222656 5.296875 -4.785156 5.296875 -4.265625 C 5.296875 -3.710938 5.503906 -3.28125 5.921875 -2.96875 C 6.347656 -2.664062 6.90625 -2.515625 7.59375 -2.515625 Z M 7.59375 -2.515625 "/></g></g></g><g fill="#000000" fill-opacity="1"><g transform="translate(80.454616, 36.66471)"><g><path d="M 8.203125 0 C 6.710938 0 5.515625 -0.359375 4.609375 -1.078125 C 3.710938 -1.804688 3.265625 -3.097656 3.265625 -4.953125 L 3.265625 -11.15625 L 0.828125 -11.15625 L 0.828125 -14.21875 L 3.265625 -14.21875 L 3.703125 -18.03125 L 6.9375 -18.03125 L 6.9375 -14.21875 L 10.78125 -14.21875 L 10.78125 -11.15625 L 6.9375 -11.15625 L 6.9375 -4.9375 C 6.9375 -4.25 7.082031 -3.773438 7.375 -3.515625 C 7.675781 -3.253906 8.191406 -3.125 8.921875 -3.125 L 10.6875 -3.125 L 10.6875 0 Z M 8.203125 0 "/></g></g></g><g fill="#000000" fill-opacity="1"><g transform="translate(92.523406, 36.66471)"><g><path d="M 8.6875 0.34375 C 7.3125 0.34375 6.070312 0.03125 4.96875 -0.59375 C 3.875 -1.226562 3.003906 -2.101562 2.359375 -3.21875 C 1.722656 -4.34375 1.40625 -5.640625 1.40625 -7.109375 C 1.40625 -8.578125 1.726562 -9.867188 2.375 -10.984375 C 3.03125 -12.109375 3.90625 -12.984375 5 -13.609375 C 6.101562 -14.242188 7.34375 -14.5625 8.71875 -14.5625 C 10.070312 -14.5625 11.296875 -14.242188 12.390625 -13.609375 C 13.492188 -12.984375 14.363281 -12.109375 15 -10.984375 C 15.644531 -9.867188 15.96875 -8.578125 15.96875 -7.109375 C 15.96875 -5.640625 15.644531 -4.34375 15 -3.21875 C 14.363281 -2.101562 13.488281 -1.226562 12.375 -0.59375 C 11.269531 0.03125 10.039062 0.34375 8.6875 0.34375 Z M 8.6875 -2.84375 C 9.644531 -2.84375 10.476562 -3.195312 11.1875 -3.90625 C 11.894531 -4.625 12.25 -5.691406 12.25 -7.109375 C 12.25 -8.523438 11.894531 -9.585938 11.1875 -10.296875 C 10.476562 -11.015625 9.65625 -11.375 8.71875 -11.375 C 7.738281 -11.375 6.898438 -11.015625 6.203125 -10.296875 C 5.503906 -9.585938 5.15625 -8.523438 5.15625 -7.109375 C 5.15625 -5.691406 5.503906 -4.625 6.203125 -3.90625 C 6.898438 -3.195312 7.726562 -2.84375 8.6875 -2.84375 Z M 8.6875 -2.84375 "/></g></g></g><g fill="#000000" fill-opacity="1"><g transform="translate(109.895581, 36.66471)"><g><path d="M 1.859375 0 L 1.859375 -14.21875 L 5.125 -14.21875 L 5.46875 -11.5625 C 5.988281 -12.476562 6.691406 -13.207031 7.578125 -13.75 C 8.472656 -14.289062 9.519531 -14.5625 10.71875 -14.5625 L 10.71875 -10.6875 L 9.6875 -10.6875 C 8.882812 -10.6875 8.164062 -10.5625 7.53125 -10.3125 C 6.90625 -10.070312 6.414062 -9.644531 6.0625 -9.03125 C 5.707031 -8.414062 5.53125 -7.566406 5.53125 -6.484375 L 5.53125 0 Z M 1.859375 0 "/></g></g></g><g fill="#000000" fill-opacity="1"><g transform="translate(121.247695, 36.66471)"><g><path d="M 3.84375 -16.421875 C 3.175781 -16.421875 2.625 -16.625 2.1875 -17.03125 C 1.757812 -17.4375 1.546875 -17.941406 1.546875 -18.546875 C 1.546875 -19.160156 1.757812 -19.660156 2.1875 -20.046875 C 2.625 -20.441406 3.175781 -20.640625 3.84375 -20.640625 C 4.507812 -20.640625 5.054688 -20.441406 5.484375 -20.046875 C 5.921875 -19.660156 6.140625 -19.160156 6.140625 -18.546875 C 6.140625 -17.941406 5.921875 -17.4375 5.484375 -17.03125 C 5.054688 -16.625 4.507812 -16.421875 3.84375 -16.421875 Z M 2 0 L 2 -14.21875 L 5.671875 -14.21875 L 5.671875 0 Z M 2 0 "/></g></g></g><g fill="#000000" fill-opacity="1"><g transform="translate(128.901776, 36.66471)"><g><path d="M 8.6875 0.34375 C 7.3125 0.34375 6.070312 0.03125 4.96875 -0.59375 C 3.875 -1.226562 3.003906 -2.101562 2.359375 -3.21875 C 1.722656 -4.34375 1.40625 -5.640625 1.40625 -7.109375 C 1.40625 -8.578125 1.726562 -9.867188 2.375 -10.984375 C 3.03125 -12.109375 3.90625 -12.984375 5 -13.609375 C 6.101562 -14.242188 7.34375 -14.5625 8.71875 -14.5625 C 10.070312 -14.5625 11.296875 -14.242188 12.390625 -13.609375 C 13.492188 -12.984375 14.363281 -12.109375 15 -10.984375 C 15.644531 -9.867188 15.96875 -8.578125 15.96875 -7.109375 C 15.96875 -5.640625 15.644531 -4.34375 15 -3.21875 C 14.363281 -2.101562 13.488281 -1.226562 12.375 -0.59375 C 11.269531 0.03125 10.039062 0.34375 8.6875 0.34375 Z M 8.6875 -2.84375 C 9.644531 -2.84375 10.476562 -3.195312 11.1875 -3.90625 C 11.894531 -4.625 12.25 -5.691406 12.25 -7.109375 C 12.25 -8.523438 11.894531 -9.585938 11.1875 -10.296875 C 10.476562 -11.015625 9.65625 -11.375 8.71875 -11.375 C 7.738281 -11.375 6.898438 -11.015625 6.203125 -10.296875 C 5.503906 -9.585938 5.15625 -8.523438 5.15625 -7.109375 C 5.15625 -5.691406 5.503906 -4.625 6.203125 -3.90625 C 6.898438 -3.195312 7.726562 -2.84375 8.6875 -2.84375 Z M 8.6875 -2.84375 "/></g></g></g><g fill="#000000" fill-opacity="1"><g transform="translate(29.8861, 65.209998)"><g><path d="M 1.953125 0 L 1.953125 -20.078125 L 9.375 -20.078125 C 10.976562 -20.078125 12.304688 -19.804688 13.359375 -19.265625 C 14.410156 -18.734375 15.191406 -18 15.703125 -17.0625 C 16.222656 -16.125 16.484375 -15.070312 16.484375 -13.90625 C 16.484375 -12.800781 16.234375 -11.785156 15.734375 -10.859375 C 15.242188 -9.929688 14.472656 -9.179688 13.421875 -8.609375 C 12.367188 -8.046875 11.019531 -7.765625 9.375 -7.765625 L 5.625 -7.765625 L 5.625 0 Z M 5.625 -10.75 L 9.140625 -10.75 C 10.421875 -10.75 11.34375 -11.03125 11.90625 -11.59375 C 12.476562 -12.15625 12.765625 -12.925781 12.765625 -13.90625 C 12.765625 -14.894531 12.476562 -15.671875 11.90625 -16.234375 C 11.34375 -16.804688 10.421875 -17.09375 9.140625 -17.09375 L 5.625 -17.09375 Z M 5.625 -10.75 "/></g></g></g><g fill="#000000" fill-opacity="1"><g transform="translate(47.286943, 65.209998)"><g><path d="M 6.765625 0.34375 C 5.546875 0.34375 4.539062 0.148438 3.75 -0.234375 C 2.96875 -0.628906 2.382812 -1.148438 2 -1.796875 C 1.625 -2.453125 1.4375 -3.171875 1.4375 -3.953125 C 1.4375 -5.273438 1.953125 -6.347656 2.984375 -7.171875 C 4.015625 -7.992188 5.5625 -8.40625 7.625 -8.40625 L 11.234375 -8.40625 L 11.234375 -8.75 C 11.234375 -9.71875 10.957031 -10.429688 10.40625 -10.890625 C 9.851562 -11.347656 9.164062 -11.578125 8.34375 -11.578125 C 7.59375 -11.578125 6.941406 -11.398438 6.390625 -11.046875 C 5.835938 -10.691406 5.492188 -10.171875 5.359375 -9.484375 L 1.78125 -9.484375 C 1.875 -10.515625 2.222656 -11.410156 2.828125 -12.171875 C 3.429688 -12.941406 4.207031 -13.53125 5.15625 -13.9375 C 6.113281 -14.351562 7.1875 -14.5625 8.375 -14.5625 C 10.394531 -14.5625 11.988281 -14.054688 13.15625 -13.046875 C 14.320312 -12.035156 14.90625 -10.601562 14.90625 -8.75 L 14.90625 0 L 11.78125 0 L 11.4375 -2.296875 C 11.019531 -1.523438 10.429688 -0.890625 9.671875 -0.390625 C 8.921875 0.0976562 7.953125 0.34375 6.765625 0.34375 Z M 7.59375 -2.515625 C 8.644531 -2.515625 9.460938 -2.859375 10.046875 -3.546875 C 10.628906 -4.242188 11 -5.097656 11.15625 -6.109375 L 8.03125 -6.109375 C 7.050781 -6.109375 6.347656 -5.929688 5.921875 -5.578125 C 5.503906 -5.222656 5.296875 -4.785156 5.296875 -4.265625 C 5.296875 -3.710938 5.503906 -3.28125 5.921875 -2.96875 C 6.347656 -2.664062 6.90625 -2.515625 7.59375 -2.515625 Z M 7.59375 -2.515625 "/></g></g></g><g fill="#000000" fill-opacity="1"><g transform="translate(63.82778, 65.209998)"><g><path d="M 8.40625 0.34375 C 7.0625 0.34375 5.863281 0.0195312 4.8125 -0.625 C 3.757812 -1.28125 2.925781 -2.171875 2.3125 -3.296875 C 1.707031 -4.421875 1.40625 -5.703125 1.40625 -7.140625 C 1.40625 -8.578125 1.707031 -9.851562 2.3125 -10.96875 C 2.925781 -12.082031 3.757812 -12.957031 4.8125 -13.59375 C 5.863281 -14.238281 7.0625 -14.5625 8.40625 -14.5625 C 9.46875 -14.5625 10.398438 -14.359375 11.203125 -13.953125 C 12.015625 -13.554688 12.664062 -12.992188 13.15625 -12.265625 L 13.15625 -20.640625 L 16.828125 -20.640625 L 16.828125 0 L 13.5625 0 L 13.15625 -2.03125 C 12.695312 -1.40625 12.085938 -0.851562 11.328125 -0.375 C 10.578125 0.101562 9.601562 0.34375 8.40625 0.34375 Z M 9.171875 -2.875 C 10.359375 -2.875 11.328125 -3.269531 12.078125 -4.0625 C 12.835938 -4.851562 13.21875 -5.867188 13.21875 -7.109375 C 13.21875 -8.347656 12.835938 -9.363281 12.078125 -10.15625 C 11.328125 -10.957031 10.359375 -11.359375 9.171875 -11.359375 C 8.003906 -11.359375 7.035156 -10.960938 6.265625 -10.171875 C 5.503906 -9.390625 5.125 -8.378906 5.125 -7.140625 C 5.125 -5.898438 5.503906 -4.878906 6.265625 -4.078125 C 7.035156 -3.273438 8.003906 -2.875 9.171875 -2.875 Z M 9.171875 -2.875 "/></g></g></g><g fill="#000000" fill-opacity="1"><g transform="translate(82.518635, 65.209998)"><g><path d="M 1.859375 0 L 1.859375 -14.21875 L 5.125 -14.21875 L 5.46875 -11.5625 C 5.988281 -12.476562 6.691406 -13.207031 7.578125 -13.75 C 8.472656 -14.289062 9.519531 -14.5625 10.71875 -14.5625 L 10.71875 -10.6875 L 9.6875 -10.6875 C 8.882812 -10.6875 8.164062 -10.5625 7.53125 -10.3125 C 6.90625 -10.070312 6.414062 -9.644531 6.0625 -9.03125 C 5.707031 -8.414062 5.53125 -7.566406 5.53125 -6.484375 L 5.53125 0 Z M 1.859375 0 "/></g></g></g><g fill="#000000" fill-opacity="1"><g transform="translate(93.870749, 65.209998)"><g><path d="M 8.78125 0.34375 C 7.34375 0.34375 6.066406 0.0390625 4.953125 -0.5625 C 3.847656 -1.175781 2.976562 -2.035156 2.34375 -3.140625 C 1.71875 -4.253906 1.40625 -5.539062 1.40625 -7 C 1.40625 -8.46875 1.710938 -9.773438 2.328125 -10.921875 C 2.953125 -12.066406 3.8125 -12.957031 4.90625 -13.59375 C 6.007812 -14.238281 7.304688 -14.5625 8.796875 -14.5625 C 10.191406 -14.5625 11.425781 -14.253906 12.5 -13.640625 C 13.570312 -13.035156 14.40625 -12.203125 15 -11.140625 C 15.601562 -10.078125 15.90625 -8.894531 15.90625 -7.59375 C 15.90625 -7.382812 15.898438 -7.164062 15.890625 -6.9375 C 15.890625 -6.707031 15.878906 -6.46875 15.859375 -6.21875 L 5.046875 -6.21875 C 5.117188 -5.113281 5.503906 -4.242188 6.203125 -3.609375 C 6.898438 -2.984375 7.75 -2.671875 8.75 -2.671875 C 9.488281 -2.671875 10.109375 -2.835938 10.609375 -3.171875 C 11.117188 -3.503906 11.5 -3.9375 11.75 -4.46875 L 15.484375 -4.46875 C 15.210938 -3.570312 14.765625 -2.753906 14.140625 -2.015625 C 13.523438 -1.285156 12.765625 -0.707031 11.859375 -0.28125 C 10.953125 0.132812 9.925781 0.34375 8.78125 0.34375 Z M 8.796875 -11.578125 C 7.898438 -11.578125 7.109375 -11.320312 6.421875 -10.8125 C 5.734375 -10.3125 5.296875 -9.546875 5.109375 -8.515625 L 12.1875 -8.515625 C 12.125 -9.453125 11.773438 -10.195312 11.140625 -10.75 C 10.515625 -11.300781 9.734375 -11.578125 8.796875 -11.578125 Z M 8.796875 -11.578125 "/></g></g></g><g fill="#000000" fill-opacity="1"><g transform="translate(111.01359, 65.209998)"><g/></g></g><g fill="#000000" fill-opacity="1"><g transform="translate(117.836327, 65.209998)"><g><path d="M 7.203125 0.34375 C 5.242188 0.34375 3.675781 -0.203125 2.5 -1.296875 C 1.332031 -2.398438 0.75 -3.96875 0.75 -6 L 4.421875 -6 C 4.429688 -5.0625 4.644531 -4.3125 5.0625 -3.75 C 5.488281 -3.195312 6.171875 -2.921875 7.109375 -2.921875 C 7.984375 -2.921875 8.625 -3.179688 9.03125 -3.703125 C 9.4375 -4.234375 9.640625 -4.929688 9.640625 -5.796875 L 9.640625 -20.078125 L 13.296875 -20.078125 L 13.296875 -5.796875 C 13.296875 -3.828125 12.742188 -2.3125 11.640625 -1.25 C 10.546875 -0.1875 9.066406 0.34375 7.203125 0.34375 Z M 7.203125 0.34375 "/></g></g></g><g fill="#000000" fill-opacity="1"><g transform="translate(133.087151, 65.209998)"><g><path d="M 8.6875 0.34375 C 7.3125 0.34375 6.070312 0.03125 4.96875 -0.59375 C 3.875 -1.226562 3.003906 -2.101562 2.359375 -3.21875 C 1.722656 -4.34375 1.40625 -5.640625 1.40625 -7.109375 C 1.40625 -8.578125 1.726562 -9.867188 2.375 -10.984375 C 3.03125 -12.109375 3.90625 -12.984375 5 -13.609375 C 6.101562 -14.242188 7.34375 -14.5625 8.71875 -14.5625 C 10.070312 -14.5625 11.296875 -14.242188 12.390625 -13.609375 C 13.492188 -12.984375 14.363281 -12.109375 15 -10.984375 C 15.644531 -9.867188 15.96875 -8.578125 15.96875 -7.109375 C 15.96875 -5.640625 15.644531 -4.34375 15 -3.21875 C 14.363281 -2.101562 13.488281 -1.226562 12.375 -0.59375 C 11.269531 0.03125 10.039062 0.34375 8.6875 0.34375 Z M 8.6875 -2.84375 C 9.644531 -2.84375 10.476562 -3.195312 11.1875 -3.90625 C 11.894531 -4.625 12.25 -5.691406 12.25 -7.109375 C 12.25 -8.523438 11.894531 -9.585938 11.1875 -10.296875 C 10.476562 -11.015625 9.65625 -11.375 8.71875 -11.375 C 7.738281 -11.375 6.898438 -11.015625 6.203125 -10.296875 C 5.503906 -9.585938 5.15625 -8.523438 5.15625 -7.109375 C 5.15625 -5.691406 5.503906 -4.625 6.203125 -3.90625 C 6.898438 -3.195312 7.726562 -2.84375 8.6875 -2.84375 Z M 8.6875 -2.84375 "/></g></g></g><g fill="#000000" fill-opacity="1"><g transform="translate(150.459332, 65.209998)"><g><path d="M 7.734375 0.34375 C 6.472656 0.34375 5.363281 0.140625 4.40625 -0.265625 C 3.457031 -0.679688 2.695312 -1.25 2.125 -1.96875 C 1.550781 -2.695312 1.207031 -3.539062 1.09375 -4.5 L 4.78125 -4.5 C 4.894531 -3.945312 5.207031 -3.472656 5.71875 -3.078125 C 6.226562 -2.691406 6.882812 -2.5 7.6875 -2.5 C 8.488281 -2.5 9.070312 -2.660156 9.4375 -2.984375 C 9.8125 -3.304688 10 -3.675781 10 -4.09375 C 10 -4.707031 9.734375 -5.125 9.203125 -5.34375 C 8.671875 -5.5625 7.925781 -5.78125 6.96875 -6 C 6.351562 -6.125 5.726562 -6.28125 5.09375 -6.46875 C 4.46875 -6.664062 3.890625 -6.910156 3.359375 -7.203125 C 2.835938 -7.503906 2.414062 -7.890625 2.09375 -8.359375 C 1.769531 -8.828125 1.609375 -9.40625 1.609375 -10.09375 C 1.609375 -11.351562 2.109375 -12.410156 3.109375 -13.265625 C 4.109375 -14.128906 5.519531 -14.5625 7.34375 -14.5625 C 9.019531 -14.5625 10.359375 -14.171875 11.359375 -13.390625 C 12.367188 -12.609375 12.96875 -11.53125 13.15625 -10.15625 L 9.6875 -10.15625 C 9.476562 -11.207031 8.6875 -11.734375 7.3125 -11.734375 C 6.625 -11.734375 6.09375 -11.597656 5.71875 -11.328125 C 5.34375 -11.054688 5.15625 -10.722656 5.15625 -10.328125 C 5.15625 -9.898438 5.429688 -9.5625 5.984375 -9.3125 C 6.546875 -9.070312 7.285156 -8.84375 8.203125 -8.625 C 9.191406 -8.394531 10.101562 -8.140625 10.9375 -7.859375 C 11.769531 -7.585938 12.429688 -7.179688 12.921875 -6.640625 C 13.421875 -6.097656 13.671875 -5.316406 13.671875 -4.296875 C 13.691406 -3.421875 13.460938 -2.628906 12.984375 -1.921875 C 12.503906 -1.210938 11.816406 -0.65625 10.921875 -0.25 C 10.023438 0.144531 8.960938 0.34375 7.734375 0.34375 Z M 7.734375 0.34375 "/></g></g></g><g fill="#000000" fill-opacity="1"><g transform="translate(165.509479, 65.209998)"><g><path d="M 8.78125 0.34375 C 7.34375 0.34375 6.066406 0.0390625 4.953125 -0.5625 C 3.847656 -1.175781 2.976562 -2.035156 2.34375 -3.140625 C 1.71875 -4.253906 1.40625 -5.539062 1.40625 -7 C 1.40625 -8.46875 1.710938 -9.773438 2.328125 -10.921875 C 2.953125 -12.066406 3.8125 -12.957031 4.90625 -13.59375 C 6.007812 -14.238281 7.304688 -14.5625 8.796875 -14.5625 C 10.191406 -14.5625 11.425781 -14.253906 12.5 -13.640625 C 13.570312 -13.035156 14.40625 -12.203125 15 -11.140625 C 15.601562 -10.078125 15.90625 -8.894531 15.90625 -7.59375 C 15.90625 -7.382812 15.898438 -7.164062 15.890625 -6.9375 C 15.890625 -6.707031 15.878906 -6.46875 15.859375 -6.21875 L 5.046875 -6.21875 C 5.117188 -5.113281 5.503906 -4.242188 6.203125 -3.609375 C 6.898438 -2.984375 7.75 -2.671875 8.75 -2.671875 C 9.488281 -2.671875 10.109375 -2.835938 10.609375 -3.171875 C 11.117188 -3.503906 11.5 -3.9375 11.75 -4.46875 L 15.484375 -4.46875 C 15.210938 -3.570312 14.765625 -2.753906 14.140625 -2.015625 C 13.523438 -1.285156 12.765625 -0.707031 11.859375 -0.28125 C 10.953125 0.132812 9.925781 0.34375 8.78125 0.34375 Z M 8.796875 -11.578125 C 7.898438 -11.578125 7.109375 -11.320312 6.421875 -10.8125 C 5.734375 -10.3125 5.296875 -9.546875 5.109375 -8.515625 L 12.1875 -8.515625 C 12.125 -9.453125 11.773438 -10.195312 11.140625 -10.75 C 10.515625 -11.300781 9.734375 -11.578125 8.796875 -11.578125 Z M 7.765625 -15.375 L 7.765625 -17.953125 L 14.25 -21.453125 L 14.25 -18.46875 Z M 7.765625 -15.375 "/></g></g></g><g fill="#000000" fill-opacity="1"><g transform="translate(29.8861, 93.755285)"><g><path d="M 11.03125 0.34375 C 9.007812 0.34375 7.269531 -0.0859375 5.8125 -0.953125 C 4.363281 -1.828125 3.25 -3.039062 2.46875 -4.59375 C 1.6875 -6.15625 1.296875 -7.957031 1.296875 -10 C 1.296875 -12.050781 1.6875 -13.859375 2.46875 -15.421875 C 3.25 -16.992188 4.363281 -18.21875 5.8125 -19.09375 C 7.269531 -19.976562 9.007812 -20.421875 11.03125 -20.421875 C 13.445312 -20.421875 15.421875 -19.820312 16.953125 -18.625 C 18.492188 -17.425781 19.457031 -15.75 19.84375 -13.59375 L 15.796875 -13.59375 C 15.546875 -14.675781 15.015625 -15.53125 14.203125 -16.15625 C 13.390625 -16.78125 12.316406 -17.09375 10.984375 -17.09375 C 9.128906 -17.09375 7.675781 -16.457031 6.625 -15.1875 C 5.570312 -13.925781 5.046875 -12.195312 5.046875 -10 C 5.046875 -7.800781 5.570312 -6.078125 6.625 -4.828125 C 7.675781 -3.578125 9.128906 -2.953125 10.984375 -2.953125 C 12.316406 -2.953125 13.390625 -3.242188 14.203125 -3.828125 C 15.015625 -4.410156 15.546875 -5.21875 15.796875 -6.25 L 19.84375 -6.25 C 19.457031 -4.1875 18.492188 -2.570312 16.953125 -1.40625 C 15.421875 -0.238281 13.445312 0.34375 11.03125 0.34375 Z M 11.03125 0.34375 "/></g></g></g><g fill="#000000" fill-opacity="1"><g transform="translate(51.01365, 93.755285)"><g><path d="M 6.765625 0.34375 C 5.546875 0.34375 4.539062 0.148438 3.75 -0.234375 C 2.96875 -0.628906 2.382812 -1.148438 2 -1.796875 C 1.625 -2.453125 1.4375 -3.171875 1.4375 -3.953125 C 1.4375 -5.273438 1.953125 -6.347656 2.984375 -7.171875 C 4.015625 -7.992188 5.5625 -8.40625 7.625 -8.40625 L 11.234375 -8.40625 L 11.234375 -8.75 C 11.234375 -9.71875 10.957031 -10.429688 10.40625 -10.890625 C 9.851562 -11.347656 9.164062 -11.578125 8.34375 -11.578125 C 7.59375 -11.578125 6.941406 -11.398438 6.390625 -11.046875 C 5.835938 -10.691406 5.492188 -10.171875 5.359375 -9.484375 L 1.78125 -9.484375 C 1.875 -10.515625 2.222656 -11.410156 2.828125 -12.171875 C 3.429688 -12.941406 4.207031 -13.53125 5.15625 -13.9375 C 6.113281 -14.351562 7.1875 -14.5625 8.375 -14.5625 C 10.394531 -14.5625 11.988281 -14.054688 13.15625 -13.046875 C 14.320312 -12.035156 14.90625 -10.601562 14.90625 -8.75 L 14.90625 0 L 11.78125 0 L 11.4375 -2.296875 C 11.019531 -1.523438 10.429688 -0.890625 9.671875 -0.390625 C 8.921875 0.0976562 7.953125 0.34375 6.765625 0.34375 Z M 7.59375 -2.515625 C 8.644531 -2.515625 9.460938 -2.859375 10.046875 -3.546875 C 10.628906 -4.242188 11 -5.097656 11.15625 -6.109375 L 8.03125 -6.109375 C 7.050781 -6.109375 6.347656 -5.929688 5.921875 -5.578125 C 5.503906 -5.222656 5.296875 -4.785156 5.296875 -4.265625 C 5.296875 -3.710938 5.503906 -3.28125 5.921875 -2.96875 C 6.347656 -2.664062 6.90625 -2.515625 7.59375 -2.515625 Z M 7.59375 -2.515625 "/></g></g></g><g fill="#000000" fill-opacity="1"><g transform="translate(67.554487, 93.755285)"><g><path d="M 1.859375 0 L 1.859375 -14.21875 L 5.125 -14.21875 L 5.46875 -11.5625 C 5.988281 -12.476562 6.691406 -13.207031 7.578125 -13.75 C 8.472656 -14.289062 9.519531 -14.5625 10.71875 -14.5625 L 10.71875 -10.6875 L 9.6875 -10.6875 C 8.882812 -10.6875 8.164062 -10.5625 7.53125 -10.3125 C 6.90625 -10.070312 6.414062 -9.644531 6.0625 -9.03125 C 5.707031 -8.414062 5.53125 -7.566406 5.53125 -6.484375 L 5.53125 0 Z M 1.859375 0 "/></g></g></g><g fill="#000000" fill-opacity="1"><g transform="translate(78.906601, 93.755285)"><g><path d="M 8.6875 0.34375 C 7.3125 0.34375 6.070312 0.03125 4.96875 -0.59375 C 3.875 -1.226562 3.003906 -2.101562 2.359375 -3.21875 C 1.722656 -4.34375 1.40625 -5.640625 1.40625 -7.109375 C 1.40625 -8.578125 1.726562 -9.867188 2.375 -10.984375 C 3.03125 -12.109375 3.90625 -12.984375 5 -13.609375 C 6.101562 -14.242188 7.34375 -14.5625 8.71875 -14.5625 C 10.070312 -14.5625 11.296875 -14.242188 12.390625 -13.609375 C 13.492188 -12.984375 14.363281 -12.109375 15 -10.984375 C 15.644531 -9.867188 15.96875 -8.578125 15.96875 -7.109375 C 15.96875 -5.640625 15.644531 -4.34375 15 -3.21875 C 14.363281 -2.101562 13.488281 -1.226562 12.375 -0.59375 C 11.269531 0.03125 10.039062 0.34375 8.6875 0.34375 Z M 8.6875 -2.84375 C 9.644531 -2.84375 10.476562 -3.195312 11.1875 -3.90625 C 11.894531 -4.625 12.25 -5.691406 12.25 -7.109375 C 12.25 -8.523438 11.894531 -9.585938 11.1875 -10.296875 C 10.476562 -11.015625 9.65625 -11.375 8.71875 -11.375 C 7.738281 -11.375 6.898438 -11.015625 6.203125 -10.296875 C 5.503906 -9.585938 5.15625 -8.523438 5.15625 -7.109375 C 5.15625 -5.691406 5.503906 -4.625 6.203125 -3.90625 C 6.898438 -3.195312 7.726562 -2.84375 8.6875 -2.84375 Z M 8.6875 -2.84375 "/></g></g></g><g fill="#000000" fill-opacity="1"><g transform="translate(96.278776, 93.755285)"><g><path d="M 1.859375 0 L 1.859375 -20.640625 L 5.53125 -20.640625 L 5.53125 0 Z M 1.859375 0 "/></g></g></g><g fill="#000000" fill-opacity="1"><g transform="translate(103.703517, 93.755285)"><g><path d="M 8.6875 0.34375 C 7.3125 0.34375 6.070312 0.03125 4.96875 -0.59375 C 3.875 -1.226562 3.003906 -2.101562 2.359375 -3.21875 C 1.722656 -4.34375 1.40625 -5.640625 1.40625 -7.109375 C 1.40625 -8.578125 1.726562 -9.867188 2.375 -10.984375 C 3.03125 -12.109375 3.90625 -12.984375 5 -13.609375 C 6.101562 -14.242188 7.34375 -14.5625 8.71875 -14.5625 C 10.070312 -14.5625 11.296875 -14.242188 12.390625 -13.609375 C 13.492188 -12.984375 14.363281 -12.109375 15 -10.984375 C 15.644531 -9.867188 15.96875 -8.578125 15.96875 -7.109375 C 15.96875 -5.640625 15.644531 -4.34375 15 -3.21875 C 14.363281 -2.101562 13.488281 -1.226562 12.375 -0.59375 C 11.269531 0.03125 10.039062 0.34375 8.6875 0.34375 Z M 8.6875 -2.84375 C 9.644531 -2.84375 10.476562 -3.195312 11.1875 -3.90625 C 11.894531 -4.625 12.25 -5.691406 12.25 -7.109375 C 12.25 -8.523438 11.894531 -9.585938 11.1875 -10.296875 C 10.476562 -11.015625 9.65625 -11.375 8.71875 -11.375 C 7.738281 -11.375 6.898438 -11.015625 6.203125 -10.296875 C 5.503906 -9.585938 5.15625 -8.523438 5.15625 -7.109375 C 5.15625 -5.691406 5.503906 -4.625 6.203125 -3.90625 C 6.898438 -3.195312 7.726562 -2.84375 8.6875 -2.84375 Z M 8.6875 -2.84375 "/></g></g></g></svg>